<?xml version="1.0" encoding="UTF-8"?>
<svg width="320px" height="320px" viewBox="0 0 320 320" version="1.1" xmlns="http://www.w3.org/2000/svg" xmlns:xlink="http://www.w3.org/1999/xlink">
    <!-- Generator: Sketch 46.2 (44496) - http://www.bohemiancoding.com/sketch -->
    <title>Group 3</title>
    <desc>Created with Sketch.</desc>
    <defs>
        <path d="M159,5.54700538 L257.564065,62.4529946 L257.564065,62.4529946 C269.940108,69.5983064 277.564065,82.8033872 277.564065,97.0940108 L277.564065,210.905989 C277.564065,225.196613 269.940108,238.401694 257.564065,245.547005 L159,302.452995 L159,302.452995 C146.623957,309.598306 131.376043,309.598306 119,302.452995 L20.4359354,245.547005 L20.4359354,245.547005 C8.05989232,238.401694 0.435935394,225.196613 0.435935394,210.905989 L0.435935394,97.0940108 L0.435935394,97.0940108 C0.435935394,82.8033872 8.05989232,69.5983064 20.4359354,62.4529946 L119,5.54700538 L119,5.54700538 C131.376043,-1.59830641 146.623957,-1.59830641 159,5.54700538 L159,5.54700538 Z M39.0013358,127.573133 C35.1749948,129.782272 33.8639936,134.674995 36.0731326,138.501336 C38.2822716,142.327677 43.1749948,143.638678 47.0013358,141.429539 L169.110918,70.929539 C172.937259,68.7204 174.24826,63.8276768 172.039121,60.0013358 C169.829982,56.1749948 164.937259,54.8639936 161.110918,57.0731326 L39.0013358,127.573133 Z M75.0013358,142.573133 C71.1749948,144.782272 69.8639936,149.674995 72.0731326,153.501336 C74.2822716,157.327677 79.1749948,158.638678 83.0013358,156.429539 L205.110918,85.929539 C208.937259,83.7204 210.24826,78.8276768 208.039121,75.0013358 C205.829982,71.1749948 200.937259,69.8639936 197.110918,72.0731326 L75.0013358,142.573133 Z M70.0013358,181.573133 C66.1749948,183.782272 64.8639936,188.674995 67.0731326,192.501336 C69.2822716,196.327677 74.1749948,197.638678 78.0013358,195.429539 L200.110918,124.929539 C203.937259,122.7204 205.24826,117.827677 203.039121,114.001336 C200.829982,110.174995 195.937259,108.863994 192.110918,111.073133 L70.0013358,181.573133 Z M106.001336,196.573133 C102.174995,198.782272 100.863994,203.674995 103.073133,207.501336 C105.282272,211.327677 110.174995,212.638678 114.001336,210.429539 L236.110918,139.929539 C239.937259,137.7204 241.24826,132.827677 239.039121,129.001336 C236.829982,125.174995 231.937259,123.863994 228.110918,126.073133 L106.001336,196.573133 Z M101.001336,236.573133 C97.1749948,238.782272 95.8639936,243.674995 98.0731326,247.501336 C100.282272,251.327677 105.174995,252.638678 109.001336,250.429539 L231.110918,179.929539 C234.937259,177.7204 236.24826,172.827677 234.039121,169.001336 C231.829982,165.174995 226.937259,163.863994 223.110918,166.073133 L101.001336,236.573133 Z" id="path-1"></path>
        <linearGradient x1="100%" y1="100%" x2="0%" y2="0%" id="linearGradient-3">
            <stop stop-color="#261B40" offset="0%"></stop>
            <stop stop-color="#65233E" offset="24.0585938%"></stop>
            <stop stop-color="#C73E30" offset="50.578125%"></stop>
            <stop stop-color="#FC6529" offset="76.1484375%"></stop>
            <stop stop-color="#FF9C26" offset="100%"></stop>
        </linearGradient>
    </defs>
    <g id="Page-1" stroke="none" stroke-width="1" fill="none" fill-rule="evenodd">
        <g id="pdb_image" transform="translate(-141.000000, -140.000000)">
            <g id="Group-3" transform="translate(162.000000, 146.000000)">
                <g id="Group-2">
                    <mask id="mask-2" fill="white">
                        <use xlink:href="#path-1"></use>
                    </mask>
                    <use id="Combined-Shape" fill="#FFFFFF" xlink:href="#path-1"></use>
                    <rect id="Combined-Shape" fill="url(#linearGradient-3)" mask="url(#mask-2)" x="-59" y="-43" width="394" height="394"></rect>
                </g>
                <g id="Group" transform="translate(138.933013, 153.750000) rotate(-30.000000) translate(-138.933013, -153.750000) translate(47.933013, 82.750000)"></g>
            </g>
        </g>
    </g>
</svg>